; NON-PLATED HOLES START AT T1
; THROUGH (PLATED) HOLES START AT T100
M48
INCH
T100C0.098425
T101C0.038000
T102C0.040000
T103C0.031496
T104C0.035433
%
T100
X001889Y013004
X001889Y006004
T101
X010389Y001504
X003389Y001504
X015389Y001504
X016389Y001504
X009389Y001504
X007389Y017504
X013389Y001504
X011389Y017504
X010389Y017504
X017389Y017504
X014389Y001504
X009389Y017504
X007389Y001504
X004389Y001504
X012389Y001504
X005389Y001504
X014389Y017504
X015389Y017504
X013389Y017504
X012389Y017504
X006389Y001504
X016389Y017504
X018389Y001504
X011389Y001504
X018389Y017504
X017389Y001504
X008389Y017504
X008389Y001504
T102
X027389Y010504
X027389Y011504
X027389Y009504
X028389Y008504
X028389Y009504
X027389Y007504
X028389Y010504
X028389Y011504
X028389Y007504
X027389Y008504
T103
X002993Y008204
X002993Y010803
T104
X010389Y005504
X012389Y005504
X001891Y008086
X007389Y013504
X004389Y005504
X018389Y013504
X013389Y005504
X014389Y005504
X015389Y005504
X011389Y005504
X018389Y005504
X014389Y013504
X012389Y013504
X015389Y013504
X006389Y005504
X010389Y013504
X003389Y005504
X017389Y013504
X007389Y005504
X016389Y013504
X005389Y005504
X017389Y005504
X011389Y013504
X001891Y010921
X008389Y013504
X009389Y005504
X016389Y005504
X009389Y013504
X008389Y005504
X013389Y013504
T00
M30
