G04 MADE WITH FRITZING*
G04 WWW.FRITZING.ORG*
G04 DOUBLE SIDED*
G04 HOLES PLATED*
G04 CONTOUR ON CENTER OF CONTOUR VECTOR*
%ASAXBY*%
%FSLAX23Y23*%
%MOIN*%
%OFA0B0*%
%SFA1.0B1.0*%
%ADD10C,0.148425*%
%ADD11C,0.105000*%
%ADD12C,0.061496*%
%ADD13C,0.072000*%
%ADD14C,0.084000*%
%ADD15C,0.088000*%
%ADD16R,0.105000X0.105000*%
%ADD17R,0.084000X0.084000*%
%ADD18R,0.001000X0.001000*%
%LNMASK1*%
G90*
G70*
G54D10*
X189Y600D03*
G54D11*
X189Y1092D03*
G54D12*
X299Y1080D03*
G54D13*
X1839Y550D03*
X1739Y550D03*
X1639Y550D03*
X1539Y550D03*
X1439Y550D03*
X1339Y550D03*
X1239Y550D03*
X1139Y550D03*
X1039Y550D03*
G54D10*
X189Y1300D03*
G54D13*
X939Y550D03*
X839Y550D03*
X739Y550D03*
X639Y550D03*
X539Y550D03*
X439Y550D03*
X339Y550D03*
X739Y1350D03*
X839Y1350D03*
X939Y1350D03*
X1039Y1350D03*
X1139Y1350D03*
X1239Y1350D03*
X1339Y1350D03*
X1439Y1350D03*
X1539Y1350D03*
X1639Y1350D03*
X1739Y1350D03*
X1839Y1350D03*
G54D12*
X299Y820D03*
G54D11*
X189Y809D03*
G54D14*
X2739Y750D03*
X2739Y850D03*
X2739Y950D03*
X2739Y1050D03*
X2739Y1150D03*
X2839Y750D03*
X2839Y850D03*
X2839Y950D03*
X2839Y1050D03*
X2839Y1150D03*
G54D15*
X1839Y1750D03*
X1739Y1750D03*
X1639Y1750D03*
X1539Y1750D03*
X1439Y1750D03*
X1339Y1750D03*
X1239Y1750D03*
X1139Y1750D03*
X1039Y1750D03*
X939Y1750D03*
X839Y1750D03*
X739Y1750D03*
X1839Y150D03*
X1739Y150D03*
X1639Y150D03*
X1539Y150D03*
X1439Y150D03*
X1339Y150D03*
X1239Y150D03*
X1139Y150D03*
X1039Y150D03*
X939Y150D03*
X839Y150D03*
X739Y150D03*
X639Y150D03*
X539Y150D03*
X439Y150D03*
X339Y150D03*
G54D16*
X189Y1092D03*
X189Y809D03*
G54D17*
X2839Y750D03*
G54D18*
X274Y1127D02*
X324Y1127D01*
X274Y1126D02*
X324Y1126D01*
X274Y1125D02*
X324Y1125D01*
X274Y1124D02*
X324Y1124D01*
X274Y1123D02*
X324Y1123D01*
X274Y1122D02*
X324Y1122D01*
X274Y1121D02*
X324Y1121D01*
X274Y1120D02*
X324Y1120D01*
X274Y1119D02*
X324Y1119D01*
X274Y1118D02*
X324Y1118D01*
X274Y1117D02*
X324Y1117D01*
X274Y1116D02*
X324Y1116D01*
X274Y1115D02*
X324Y1115D01*
X274Y1114D02*
X324Y1114D01*
X274Y1113D02*
X324Y1113D01*
X274Y1112D02*
X324Y1112D01*
X274Y1111D02*
X324Y1111D01*
X274Y1110D02*
X324Y1110D01*
X274Y1109D02*
X324Y1109D01*
X274Y1108D02*
X324Y1108D01*
X274Y1107D02*
X324Y1107D01*
X274Y1106D02*
X324Y1106D01*
X274Y1105D02*
X324Y1105D01*
X274Y1104D02*
X324Y1104D01*
X274Y1103D02*
X324Y1103D01*
X274Y1102D02*
X324Y1102D01*
X274Y1101D02*
X324Y1101D01*
X274Y1100D02*
X324Y1100D01*
X274Y1099D02*
X324Y1099D01*
X274Y1098D02*
X324Y1098D01*
X274Y1097D02*
X324Y1097D01*
X274Y1096D02*
X294Y1096D01*
X303Y1096D02*
X324Y1096D01*
X274Y1095D02*
X291Y1095D01*
X306Y1095D02*
X324Y1095D01*
X274Y1094D02*
X290Y1094D01*
X308Y1094D02*
X324Y1094D01*
X274Y1093D02*
X288Y1093D01*
X309Y1093D02*
X324Y1093D01*
X274Y1092D02*
X287Y1092D01*
X310Y1092D02*
X324Y1092D01*
X274Y1091D02*
X286Y1091D01*
X311Y1091D02*
X324Y1091D01*
X274Y1090D02*
X286Y1090D01*
X312Y1090D02*
X324Y1090D01*
X274Y1089D02*
X285Y1089D01*
X313Y1089D02*
X324Y1089D01*
X274Y1088D02*
X284Y1088D01*
X313Y1088D02*
X324Y1088D01*
X274Y1087D02*
X284Y1087D01*
X314Y1087D02*
X324Y1087D01*
X274Y1086D02*
X283Y1086D01*
X314Y1086D02*
X324Y1086D01*
X274Y1085D02*
X283Y1085D01*
X314Y1085D02*
X324Y1085D01*
X273Y1084D02*
X283Y1084D01*
X315Y1084D02*
X324Y1084D01*
X273Y1083D02*
X283Y1083D01*
X315Y1083D02*
X324Y1083D01*
X273Y1082D02*
X283Y1082D01*
X315Y1082D02*
X324Y1082D01*
X273Y1081D02*
X283Y1081D01*
X315Y1081D02*
X324Y1081D01*
X273Y1080D02*
X283Y1080D01*
X315Y1080D02*
X324Y1080D01*
X273Y1079D02*
X283Y1079D01*
X315Y1079D02*
X324Y1079D01*
X273Y1078D02*
X283Y1078D01*
X315Y1078D02*
X324Y1078D01*
X273Y1077D02*
X283Y1077D01*
X315Y1077D02*
X324Y1077D01*
X274Y1076D02*
X283Y1076D01*
X314Y1076D02*
X324Y1076D01*
X274Y1075D02*
X284Y1075D01*
X314Y1075D02*
X324Y1075D01*
X274Y1074D02*
X284Y1074D01*
X314Y1074D02*
X324Y1074D01*
X274Y1073D02*
X285Y1073D01*
X313Y1073D02*
X324Y1073D01*
X274Y1072D02*
X285Y1072D01*
X312Y1072D02*
X324Y1072D01*
X274Y1071D02*
X286Y1071D01*
X312Y1071D02*
X324Y1071D01*
X274Y1070D02*
X287Y1070D01*
X311Y1070D02*
X324Y1070D01*
X274Y1069D02*
X288Y1069D01*
X310Y1069D02*
X324Y1069D01*
X274Y1068D02*
X289Y1068D01*
X308Y1068D02*
X324Y1068D01*
X274Y1067D02*
X291Y1067D01*
X307Y1067D02*
X324Y1067D01*
X274Y1066D02*
X293Y1066D01*
X305Y1066D02*
X324Y1066D01*
X274Y1065D02*
X324Y1065D01*
X274Y1064D02*
X324Y1064D01*
X274Y1063D02*
X324Y1063D01*
X274Y1062D02*
X324Y1062D01*
X274Y1061D02*
X324Y1061D01*
X274Y1060D02*
X324Y1060D01*
X274Y1059D02*
X324Y1059D01*
X274Y1058D02*
X324Y1058D01*
X274Y1057D02*
X324Y1057D01*
X274Y1056D02*
X324Y1056D01*
X295Y1055D02*
X303Y1055D01*
X274Y846D02*
X324Y846D01*
X274Y845D02*
X324Y845D01*
X274Y844D02*
X324Y844D01*
X274Y843D02*
X324Y843D01*
X274Y842D02*
X324Y842D01*
X274Y841D02*
X324Y841D01*
X274Y840D02*
X324Y840D01*
X274Y839D02*
X324Y839D01*
X274Y838D02*
X324Y838D01*
X274Y837D02*
X324Y837D01*
X274Y836D02*
X294Y836D01*
X304Y836D02*
X324Y836D01*
X274Y835D02*
X291Y835D01*
X306Y835D02*
X324Y835D01*
X274Y834D02*
X289Y834D01*
X308Y834D02*
X324Y834D01*
X274Y833D02*
X288Y833D01*
X309Y833D02*
X324Y833D01*
X274Y832D02*
X287Y832D01*
X310Y832D02*
X324Y832D01*
X274Y831D02*
X286Y831D01*
X311Y831D02*
X324Y831D01*
X274Y830D02*
X285Y830D01*
X312Y830D02*
X324Y830D01*
X274Y829D02*
X285Y829D01*
X313Y829D02*
X324Y829D01*
X274Y828D02*
X284Y828D01*
X313Y828D02*
X324Y828D01*
X274Y827D02*
X284Y827D01*
X314Y827D02*
X324Y827D01*
X274Y826D02*
X283Y826D01*
X314Y826D02*
X324Y826D01*
X274Y825D02*
X283Y825D01*
X315Y825D02*
X324Y825D01*
X273Y824D02*
X283Y824D01*
X315Y824D02*
X324Y824D01*
X273Y823D02*
X283Y823D01*
X315Y823D02*
X324Y823D01*
X273Y822D02*
X283Y822D01*
X315Y822D02*
X324Y822D01*
X273Y821D02*
X283Y821D01*
X315Y821D02*
X324Y821D01*
X273Y820D02*
X283Y820D01*
X315Y820D02*
X324Y820D01*
X273Y819D02*
X283Y819D01*
X315Y819D02*
X324Y819D01*
X273Y818D02*
X283Y818D01*
X315Y818D02*
X324Y818D01*
X273Y817D02*
X283Y817D01*
X315Y817D02*
X324Y817D01*
X274Y816D02*
X283Y816D01*
X314Y816D02*
X324Y816D01*
X274Y815D02*
X284Y815D01*
X314Y815D02*
X324Y815D01*
X274Y814D02*
X284Y814D01*
X313Y814D02*
X324Y814D01*
X274Y813D02*
X285Y813D01*
X313Y813D02*
X324Y813D01*
X274Y812D02*
X285Y812D01*
X312Y812D02*
X324Y812D01*
X274Y811D02*
X286Y811D01*
X311Y811D02*
X324Y811D01*
X274Y810D02*
X287Y810D01*
X311Y810D02*
X324Y810D01*
X274Y809D02*
X288Y809D01*
X309Y809D02*
X324Y809D01*
X274Y808D02*
X289Y808D01*
X308Y808D02*
X324Y808D01*
X274Y807D02*
X291Y807D01*
X307Y807D02*
X324Y807D01*
X274Y806D02*
X293Y806D01*
X304Y806D02*
X324Y806D01*
X274Y805D02*
X324Y805D01*
X274Y804D02*
X324Y804D01*
X274Y803D02*
X324Y803D01*
X274Y802D02*
X324Y802D01*
X274Y801D02*
X324Y801D01*
X274Y800D02*
X324Y800D01*
X274Y799D02*
X324Y799D01*
X274Y798D02*
X324Y798D01*
X274Y797D02*
X324Y797D01*
X274Y796D02*
X324Y796D01*
X274Y795D02*
X324Y795D01*
X274Y794D02*
X324Y794D01*
X274Y793D02*
X324Y793D01*
X274Y792D02*
X324Y792D01*
X274Y791D02*
X324Y791D01*
X274Y790D02*
X324Y790D01*
X274Y789D02*
X324Y789D01*
X274Y788D02*
X324Y788D01*
X274Y787D02*
X324Y787D01*
X274Y786D02*
X324Y786D01*
X274Y785D02*
X324Y785D01*
X274Y784D02*
X324Y784D01*
X274Y783D02*
X324Y783D01*
X274Y782D02*
X324Y782D01*
X274Y781D02*
X324Y781D01*
X274Y780D02*
X324Y780D01*
X274Y779D02*
X324Y779D01*
X274Y778D02*
X324Y778D01*
X274Y777D02*
X324Y777D01*
X274Y776D02*
X324Y776D01*
X274Y775D02*
X324Y775D01*
D02*
G04 End of Mask1*
M02*